<svg xmlns="http://www.w3.org/2000/svg" width="512" height="512" viewBox="0 0 512 512" fill="none">
  <!-- Background circle -->
  <circle cx="256" cy="256" r="240" fill="#2563EB" />
  
  <!-- Calendar grid -->
  <rect x="160" y="180" width="192" height="152" rx="8" fill="white" />
  
  <!-- Calendar header -->
  <rect x="160" y="180" width="192" height="32" rx="8" fill="#1E40AF" />
  <rect x="160" y="204" width="192" height="8" fill="#1E40AF" />
  
  <!-- Calendar grid lines -->
  <g stroke="#E5E7EB" stroke-width="1">
    <line x1="192" y1="212" x2="192" y2="332" />
    <line x1="224" y1="212" x2="224" y2="332" />
    <line x1="256" y1="212" x2="256" y2="332" />
    <line x1="288" y1="212" x2="288" y2="332" />
    <line x1="320" y1="212" x2="320" y2="332" />
    
    <line x1="160" y1="244" x2="352" y2="244" />
    <line x1="160" y1="276" x2="352" y2="276" />
    <line x1="160" y1="308" x2="352" y2="308" />
  </g>
  
  <!-- AI spark icon -->
  <g transform="translate(280, 140)">
    <circle cx="0" cy="0" r="20" fill="#FCD34D" />
    <path d="M-8 -8 L0 -16 L8 -8 L16 0 L8 8 L0 16 L-8 8 L-16 0 Z" fill="white" />
  </g>
  
  <!-- Selected dates dots -->
  <circle cx="176" cy="260" r="4" fill="#10B981" />
  <circle cx="240" cy="260" r="4" fill="#10B981" />
  <circle cx="304" cy="292" r="4" fill="#10B981" />
  <circle cx="208" cy="292" r="4" fill="#F59E0B" />
  <circle cx="272" cy="324" r="4" fill="#EF4444" />
</svg> 